<?xml version="1.0" encoding="utf-8"?>
<!-- Generator: Adobe Illustrator 27.2.0, SVG Export Plug-In . SVG Version: 6.00 Build 0)  -->
<svg version="1.1" id="Layer_1" xmlns="http://www.w3.org/2000/svg" xmlns:xlink="http://www.w3.org/1999/xlink" x="0px" y="0px"
	 viewBox="0 0 800 800" style="enable-background:new 0 0 800 800;" xml:space="preserve">
<style type="text/css">
	.st0{fill:#ffb800;}
</style>
<path class="st0" d="M374.5,384.2c-6,0-10.9-4.9-10.9-10.9c0-42.2,34.3-76.6,76.6-76.6c6,0,10.9,4.9,10.9,10.9
	c0,6-4.9,10.9-10.9,10.9c-30.2,0-54.7,24.5-54.7,54.7C385.4,379.3,380.5,384.2,374.5,384.2z M647.9,370.9h-21.9
	c0-4.8-4.1-17.3-11.3-23.5c-4.8-4.2-10.7-6.3-17-7.2c-4.4-0.6-8.2-0.1-11.5,0.7c-5.4,1.2-10.3,2.5-14.3,6
	c-7.4,6.2-11.6,19.2-11.6,24h-21.9c0-16,7-30.1,19.3-40.5c6.7-5.8,15-9.3,23.7-11.1c5.6-1.3,12.1-1.4,19.3-0.5
	c10.6,1.5,20.4,4.9,28.3,11.9C641.1,341,647.9,354.9,647.9,370.9z"/>
<path class="st0" d="M478.4,370.9h-21.9c0-4.8-7.4-16.4-16.4-16.4c-9,0-16.4,11.6-16.4,16.4h-21.9c0-16,17.2-38.3,38.3-38.3
	C461.2,332.6,478.4,354.9,478.4,370.9z M636,288.2c-2.2,0-4.3-0.7-6.1-1.9c-5-3.4-6.3-10.2-2.9-15.2L710,148.3
	c3.4-5,10.2-6.3,15.2-2.9c5,3.4,6.3,10.2,2.9,15.2L645,283.4C643,286.4,639.6,288.2,636,288.2z M237.8,350.1H117.4
	c-6,0-10.9-5.2-10.9-11.2c0-6,4.9-11.2,10.9-11.2h120.3c6,0,10.9,5.2,10.9,11.2C248.7,344.9,243.8,350.1,237.8,350.1L237.8,350.1z
	 M380,296.7c-3,0-5.9-1.2-8-3.4l-93-98.4c-4.1-4.4-3.9-11.3,0.4-15.5c4.4-4.1,11.3-4,15.5,0.4l93,98.4c4.1,4.4,3.9,11.3-0.4,15.5
	C385.4,295.6,382.8,296.7,380,296.7z"/>
<path class="st0" d="M505.7,420.4c-9,0-19,9.4-19,18.4v158.6c108.8,0,199.5-68.2,199.5-177H505.7z M235.5,539.7l-2.6,45.9
	c-0.3,6-5.5,10.9-11.5,10.9h-87.5c-6,0-11.2-4.4-11.5-10.4l-4.3-77.2c-0.3-6,4.3-11.6,10.3-11.6h89.3
	C222.4,513.2,228.3,526.5,235.5,539.7L235.5,539.7z"/>
<path class="st0" d="M719,359.7h-8.9c2.1-4.8,1.6-16.9-2-25.7c-7-17-23.6-26.8-41-26.4c0.1-5.9-1-11.4-3.3-17
	c-4.5-10.8-12.9-19.1-23.6-23.5c-10.8-4.5-22.7-4.5-33.5,0c-5.5,2.3-10.5,5.7-14.7,10c-12.1-12.5-31.1-17-48.1-10
	c-10.8,4.4-19.2,12.9-23.7,23.7c0,0.1-0.1,0.2-0.1,0.3c-20.7-20.1-48.9-33.9-79.9-33.9c-59.6,0-108.8,48.2-114.3,102.6h-24l1.5-19.8
	l0-23.4c0-18.1-14.7-33.6-32.8-33.6H84.6c-18.1,0-35.4,17.6-35.4,35.7v21.9l21.6,284.2c1.3,17.6,18,31,35.7,31h142.2
	c17.7,0,33.1-13.3,34.3-31l3.6-50c47,51.4,117,82.8,201.3,82.8c152.1,0,261.1-101,261.1-240.4v-21.9
	C749.1,377,737.1,359.7,719,359.7z M540.4,299.1c2.2-5.4,6.4-9.5,11.8-11.7c11.2-4.6,24-0.2,28.5,10.7c1.8,4.7,6.2,7.1,11.2,7.1h0
	c5,0,9.4-2.4,11.2-6.8c2.3-5.4,6.5-9.5,11.9-11.8c5.4-2.2,11.3-1.9,16.8,0.4c5.4,2.2,9.6,6.6,11.8,12c2.2,5.4,2.2,11.4-0.1,17
	c-1.8,4.5-0.7,9.6,2.7,13c3.4,3.4,8.5,4.5,13.2,2.7c11.1-4.6,24-0.6,28.6,10.6c2.5,6.1,2.1,12.5-1,17.3H554.4
	c-1.5-9.6-6.1-29.3-13.4-42.5c-0.1-0.9-0.3-1.1-0.7-2C538.1,309.7,538.1,304.5,540.4,299.1L540.4,299.1z M440.1,277.6
	c47.6,0,86.8,38.8,92.3,82H347.8C353.3,316.5,392.6,277.6,440.1,277.6L440.1,277.6z M261.2,623.6c-0.5,6.3-6.2,11.2-12.5,11.2H106.5
	c-6.3,0-13.1-4.9-13.6-11.2L71.6,340v-21.5c0-6,7-13.3,13-13.3h185.9c6,0,9,7.2,9,13.3V340l0.3,19.6h-20.3
	c-18.1,0-34.5,17.4-34.5,35.5V417c0,50.2,15.2,95.1,40.5,132.4L261.2,623.6L261.2,623.6z M726.7,417c0,126.8-99.6,218.2-239,218.2
	c-54.1,0-100.8-11.6-139.7-38.8h94V574H318.7c-17.7-11.2-32.5-33.6-43.9-54.4h112.8v-22.4H264.4c-6.9-16-11.7-33.6-14-54.4h78.8
	v-22.4h-80.3c0,0-2.9-1.6-2.9-3.5v-21.9c0-6,7.6-13.1,13.7-13.1H719c6,0,7.7,7,7.7,13.1V417L726.7,417z"/>
</svg>
