<?xml version="1.0" encoding="utf-8"?>
<!-- Generator: Adobe Illustrator 27.2.0, SVG Export Plug-In . SVG Version: 6.00 Build 0)  -->
<svg version="1.1" id="Layer_1" xmlns="http://www.w3.org/2000/svg" xmlns:xlink="http://www.w3.org/1999/xlink" x="0px" y="0px"
	 viewBox="0 0 800 800" style="enable-background:new 0 0 800 800;" xml:space="preserve">
<style type="text/css">
	.st0{fill:none;stroke:#ffb800;stroke-width:50;stroke-miterlimit:133.3333;}
	.st1{fill:none;stroke:#ffb800;stroke-width:50;stroke-linecap:round;stroke-linejoin:round;stroke-miterlimit:133.3333;}
	.st2{fill:none;stroke:#ffb800;stroke-width:50;stroke-linecap:round;stroke-miterlimit:133.3333;}
</style>
<path class="st0" d="M250,600c27.6,0,50,22.4,50,50c0,27.6-22.4,50-50,50s-50-22.4-50-50C200,622.4,222.4,600,250,600z"/>
<path class="st0" d="M550,600c27.6,0,50,22.4,50,50c0,27.6-22.4,50-50,50c-27.6,0-50-22.4-50-50C500,622.4,522.4,600,550,600z"/>
<path class="st1" d="M366.7,360l38.1,40L500,300"/>
<path class="st2" d="M66.7,100l8.7,3.1c43.4,15.3,65.1,22.9,77.5,41c12.4,18.2,12.4,42.3,12.4,90.5v90.7c0,98.1,2.1,130.4,31,160.9
	c28.9,30.5,75.4,30.5,168.3,30.5H400 M541.3,516.7c52,0,78,0,96.4-15c18.4-15,23.6-40.5,34.1-91.4l16.7-80.8
	c11.6-58,17.4-87,2.6-106.2C676.4,204,625.8,204,569.6,204H367.5 M165.3,204h68.1"/>
</svg>
