<?xml version="1.0" encoding="utf-8"?>
<!-- Generator: Adobe Illustrator 27.2.0, SVG Export Plug-In . SVG Version: 6.00 Build 0)  -->
<svg version="1.1" id="Layer_1" xmlns="http://www.w3.org/2000/svg" xmlns:xlink="http://www.w3.org/1999/xlink" x="0px" y="0px"
	 viewBox="0 0 800 800" style="enable-background:new 0 0 800 800;" xml:space="preserve">
<style type="text/css">
	.st0{fill:#ffb800;}
</style>
<path class="st0" d="M300,800H33.3C14.9,800,0,785.1,0,766.7s14.9-33.3,33.3-33.3H300c18.4,0,33.3,14.9,33.3,33.3S318.4,800,300,800
	z M233.3,666.7h-200C14.9,666.7,0,651.7,0,633.3S14.9,600,33.3,600h200c18.4,0,33.3,14.9,33.3,33.3S251.7,666.7,233.3,666.7z
	 M166.7,533.3H33.3C14.9,533.3,0,518.4,0,500c0-18.4,14.9-33.3,33.3-33.3h133.3c18.4,0,33.3,14.9,33.3,33.3
	C200,518.4,185.1,533.3,166.7,533.3z M433.3,798.5c-18.4,0.8-34-13.4-34.8-31.8c-0.8-18.4,13.4-34,31.9-34.8
	c183.3-16.8,318.3-179,301.6-362.3S553,51.2,369.6,67.9C209.5,82.6,82.6,209.5,68,369.7c-1.7,18.3-17.9,31.9-36.2,30.2
	C13.5,398.2,0,382,1.6,363.7c0,0,0,0,0,0C21.6,143.7,216.1-18.5,436.1,1.4C642.3,20.1,800.1,193,800,400
	c1.1,207.2-157.2,380.6-363.7,398.4C435.3,798.5,434.3,798.5,433.3,798.5z M400,200c-18.4,0-33.3,14.9-33.3,33.3V400
	c0,8.8,3.5,17.3,9.8,23.6l100,100c13.2,12.8,34.3,12.4,47.1-0.8c12.5-12.9,12.5-33.4,0-46.3l-90.2-90.2V233.3
	C433.3,214.9,418.4,200,400,200z"/>
</svg>
