<?xml version="1.0" encoding="utf-8"?>
<!-- Generator: Adobe Illustrator 27.2.0, SVG Export Plug-In . SVG Version: 6.00 Build 0)  -->
<svg version="1.1" id="Layer_1" xmlns="http://www.w3.org/2000/svg" xmlns:xlink="http://www.w3.org/1999/xlink" x="0px" y="0px"
	 viewBox="0 0 800 800" style="enable-background:new 0 0 800 800;" xml:space="preserve">
<style type="text/css">
	
		.st0{opacity:0.5;fill:none;stroke:#ffb800;stroke-width:50;stroke-linecap:round;stroke-miterlimit:133.3333;enable-background:new    ;}
	.st1{fill:none;stroke:#ffb800;stroke-width:50;stroke-linecap:round;stroke-miterlimit:133.3333;}
	.st2{fill:none;stroke:#ffb800;stroke-width:50;stroke-miterlimit:133.3333;}
</style>
<path class="st0" d="M733.3,400H66.7"/>
<path class="st0" d="M400,66.7v666.7"/>
<path class="st1" d="M433.3,400c0,73.6,59.7,133.3,133.3,133.3"/>
<path class="st1" d="M366.7,400c0,73.6-59.7,133.3-133.3,133.3"/>
<path class="st2" d="M400,334.5c0-49.7,33.8-93,82-105c53.5-13.4,101.9,35.1,88.5,88.5c-12,48.2-55.3,82-105,82H400V334.5z"/>
<path class="st2" d="M400,334.5c0-49.7-33.8-93-82-105c-53.5-13.4-101.9,35.1-88.5,88.5c12,48.2,55.3,82,105,82H400V334.5z"/>
<path class="st2" d="M66.7,400c0-157.1,0-235.7,48.8-284.5C164.3,66.7,242.9,66.7,400,66.7c157.1,0,235.7,0,284.5,48.8
	c48.8,48.8,48.8,127.4,48.8,284.5c0,157.1,0,235.7-48.8,284.5c-48.8,48.8-127.4,48.8-284.5,48.8c-157.1,0-235.7,0-284.5-48.8
	C66.7,635.7,66.7,557.1,66.7,400z"/>
</svg>
