<?xml version="1.0" encoding="utf-8"?>
<!-- Generator: Adobe Illustrator 27.2.0, SVG Export Plug-In . SVG Version: 6.00 Build 0)  -->
<svg version="1.1" id="Layer_1" xmlns="http://www.w3.org/2000/svg" xmlns:xlink="http://www.w3.org/1999/xlink" x="0px" y="0px"
	 viewBox="0 0 800 800" style="enable-background:new 0 0 800 800;" xml:space="preserve">
<style type="text/css">
	.st0{fill:none;stroke:#000000;stroke-width:32;stroke-linecap:round;stroke-linejoin:round;stroke-miterlimit:128;}
</style>
<path class="st0" d="M176.5,345.8l12,160c4.1,65.9,58.4,117.4,124.4,118.2h174.5c66-0.8,120.3-52.3,124.4-118.2l12-160
	c3.1-35.1-8.6-69.9-32.2-96c-23.6-26.1-57-41.3-92.3-41.8H300.9c-35.2,0.5-68.6,15.6-92.2,41.8C185.1,275.9,173.4,310.7,176.5,345.8
	z"/>
<path class="st0" d="M496.1,336c0,34.3-18.3,66-48,83.1c-29.7,17.1-66.3,17.1-96,0c-29.7-17.1-48-48.8-48-83.1"/>
</svg>
