<?xml version="1.0" encoding="utf-8"?>
<!-- Generator: Adobe Illustrator 27.2.0, SVG Export Plug-In . SVG Version: 6.00 Build 0)  -->
<svg version="1.1" id="Layer_1" xmlns="http://www.w3.org/2000/svg" xmlns:xlink="http://www.w3.org/1999/xlink" x="0px" y="0px"
	 viewBox="0 0 50 50" style="enable-background:new 0 0 50 50;" xml:space="preserve">
<style type="text/css">
	.st0{fill:#F7941D;}
</style>
<path class="st0" d="M28.15,3.34l3.07,6.23c1.64,3.32,4.81,5.62,8.47,6.15l6.87,1c2.88,0.42,4.03,3.95,1.94,5.98l-4.97,4.85
	c-2.65,2.58-3.86,6.31-3.24,9.96l1.17,6.85c0.49,2.87-2.52,5.05-5.09,3.7l-6.15-3.23c-3.28-1.72-7.19-1.72-10.47,0l-6.15,3.23
	c-2.57,1.35-5.58-0.83-5.09-3.7l1.17-6.85c0.63-3.65-0.58-7.37-3.24-9.96l-4.97-4.85c-2.08-2.03-0.93-5.56,1.94-5.98l6.87-1
	c3.66-0.53,6.83-2.83,8.47-6.15l3.07-6.23C23.14,0.74,26.86,0.74,28.15,3.34z"/>
</svg>
